<svg width="950" height="230" viewBox="0 0 950 230" fill="none" xmlns="http://www.w3.org/2000/svg">
<rect width="950" height="230" fill="url(#paint0_linear_32_18)"/>
<path d="M54.891 143V135.889H47.7799V121.667H40.6688V93.2222H47.7799V121.667H54.891V135.889H62.0021V121.667H69.1132V93.2222H76.2243V121.667H69.1132V135.889H62.0021V143H54.891ZM93.6674 135.889H86.5563V128.778H93.6674V121.667H115.001V114.556H93.6674V107.444H115.001V114.556H122.112V143H93.6674V135.889H115.001V128.778H93.6674V135.889ZM132.444 143V107.444H160.888V114.556H167.999V143H160.888V114.556H139.555V143H132.444ZM188.998 100.333V93.2222H196.109V100.333H188.998ZM196.109 143V135.889H188.998V114.556H181.887V107.444H196.109V135.889H210.331V143H196.109ZM241.997 143V135.889H234.885V100.333H227.774V93.2222H241.997V135.889H256.219V143H241.997ZM287.884 143V135.889H280.773V100.333H273.662V93.2222H287.884V135.889H302.106V143H287.884ZM323.105 135.889H315.994V128.778H323.105V121.667H344.438V114.556H323.105V107.444H344.438V114.556H351.549V143H323.105V135.889H344.438V128.778H323.105V135.889ZM414.88 107.444H436.213V114.556H443.324V143H436.213V114.556H414.88V143H407.769V93.2222H436.213V100.333H443.324V107.444H436.213V100.333H414.88V107.444ZM460.767 107.444H482.101V114.556H489.212V143H482.101V114.556H460.767V143H453.656V93.2222H482.101V100.333H489.212V107.444H482.101V100.333H460.767V107.444ZM506.655 121.667H527.988V114.556H506.655V107.444H527.988V114.556H535.099V128.778H506.655V135.889H535.099V143H506.655V135.889H499.544V114.556H506.655V121.667ZM556.098 100.333V93.2222H563.209V100.333H556.098ZM563.209 143V135.889H556.098V114.556H548.987V107.444H563.209V135.889H577.431V143H563.209ZM591.319 143V107.444H619.763V114.556H626.874V143H619.763V114.556H598.43V143H591.319ZM647.873 143V114.556H640.762V107.444H647.873V100.333H654.984V93.2222H669.206V100.333H654.984V107.444H669.206V114.556H654.984V143H647.873ZM690.205 135.889H683.094V114.556H690.205V107.444H711.538V114.556H718.649V135.889H711.538V143H690.205V135.889H711.538V114.556H690.205V135.889ZM728.981 143V107.444H736.092V114.556H743.203V107.444H757.426V114.556H764.537V121.667H757.426V114.556H743.203V121.667H736.092V143H728.981ZM781.98 143V135.889H774.869V114.556H781.98V107.444H803.313V114.556H810.424V121.667H803.313V114.556H781.98V135.889H803.313V128.778H810.424V135.889H803.313V143H781.98ZM827.867 121.667H849.201V114.556H827.867V107.444H849.201V114.556H856.312V128.778H827.867V135.889H856.312V143H827.867V135.889H820.756V114.556H827.867V121.667ZM873.755 135.889H866.644V114.556H873.755V107.444H887.977V114.556H895.088V93.2222H902.199V143H873.755V135.889H895.088V121.667H887.977V114.556H873.755V135.889Z" fill="white"/>
<defs>
<linearGradient id="paint0_linear_32_18" x1="475" y1="230" x2="475" y2="0" gradientUnits="userSpaceOnUse">
<stop stop-color="#4E54C8"/>
<stop offset="1" stop-color="#8F94FB"/>
</linearGradient>
</defs>
</svg>
