<svg width="260" height="260" viewBox="0 0 260 260" fill="none" xmlns="http://www.w3.org/2000/svg">
<path d="M0 0H260V260H0V0Z" fill="url(#paint0_linear_32_13)"/>
<path d="M177.487 158V143.778H184.599V136.667H191.71V129.556H205.932V115.333H184.599V122.444H177.487V115.333H184.599V108.222H205.932V115.333H213.043V129.556H205.932V136.667H191.71V143.778H184.599V150.889H205.932V143.778H213.043V158H177.487Z" fill="white"/>
<path d="M131.6 129.556V122.444H138.711V115.333H145.822V108.222H152.933V115.333H160.044V122.444H167.156V129.556H160.044V122.444H152.933V115.333H145.822V122.444H138.711V129.556H131.6Z" fill="white"/>
<path d="M92.8236 122.444H114.157V129.556H121.268V158H114.157V129.556H92.8236V158H85.7125V108.222H114.157V115.333H121.268V122.444H114.157V115.333H92.8236V122.444Z" fill="white"/>
<path d="M54.0472 158V150.889H46.9361V136.667H39.825V108.222H46.9361V136.667H54.0472V150.889H61.1583V136.667H68.2695V108.222H75.3806V136.667H68.2695V150.889H61.1583V158H54.0472Z" fill="white"/>
<defs>
<linearGradient id="paint0_linear_32_13" x1="130" y1="260" x2="130" y2="0" gradientUnits="userSpaceOnUse">
<stop stop-color="#4E54C8"/>
<stop offset="1" stop-color="#8F94FB"/>
</linearGradient>
</defs>
</svg>
