<svg width="521" height="62" viewBox="0 0 521 62" fill="none" xmlns="http://www.w3.org/2000/svg">
<path d="M5 47.625L0 3.25H6.5625L10.3125 42.625H10.9375L15.0312 14.5H21.2812L25.3125 42.625H25.9375L29.6875 3.25H36.25L31.25 47.625H21.5938L18.3125 20.6875H17.9375L14.6562 47.625H5ZM45.075 47.625V3.25H58.2625C62.7625 3.25 66.2417 4.22917 68.7 6.1875C71.1583 8.125 72.3875 10.8958 72.3875 14.5C72.3875 17.2083 71.4604 19.375 69.6062 21C67.7729 22.6042 65.1583 23.5833 61.7625 23.9375V24.3125C66.1375 24.375 69.5229 25.375 71.9187 27.3125C74.3146 29.25 75.5125 31.9583 75.5125 35.4375C75.5125 39.3125 74.3458 42.3125 72.0125 44.4375C69.6792 46.5625 66.3667 47.625 62.075 47.625H45.075ZM51.575 41.6875H60.2625C63.0125 41.6875 65.1479 41.0625 66.6687 39.8125C68.1896 38.5417 68.95 36.7708 68.95 34.5C68.95 32.1667 68.1583 30.3646 66.575 29.0938C64.9917 27.8021 62.7417 27.1562 59.825 27.1562H51.575V41.6875ZM51.575 21.2188H58.3875C60.7417 21.2188 62.5646 20.6979 63.8562 19.6562C65.1687 18.5938 65.825 17.0833 65.825 15.125C65.825 13.2083 65.1375 11.7396 63.7625 10.7188C62.4083 9.69792 60.4708 9.1875 57.95 9.1875H51.575V21.2188ZM82.1812 47.625L94.9937 3.25H104.056L116.869 47.625H110.306L107.4 36.8125H91.65L88.7437 47.625H82.1812ZM93.2437 30.875H105.806L99.8062 8.625H99.2437L93.2437 30.875ZM180.925 48.25C170.008 48.25 164.55 40.75 164.55 25.75C164.55 10.3333 170.008 2.625 180.925 2.625C191.842 2.625 197.3 10.3333 197.3 25.75C197.3 40.75 191.842 48.25 180.925 48.25ZM180.925 42.5C187.383 42.5 190.612 36.9167 190.612 25.75C190.612 14.1667 187.383 8.375 180.925 8.375C174.467 8.375 171.237 14.1667 171.237 25.75C171.237 36.9167 174.467 42.5 180.925 42.5ZM208.125 62V14.5H214.125L214.656 20.5H215.062C215.354 18.4167 216.292 16.7917 217.875 15.625C219.479 14.4583 221.573 13.875 224.156 13.875C228.51 13.875 231.802 15.3542 234.031 18.3125C236.26 21.2708 237.375 25.625 237.375 31.375C237.375 36.9167 236.26 41.1146 234.031 43.9688C231.802 46.8229 228.51 48.25 224.156 48.25C221.615 48.25 219.562 47.6667 218 46.5C216.458 45.3333 215.583 43.7083 215.375 41.625H214.75V62H208.125ZM214.75 32.1875C214.75 39.1458 217.396 42.625 222.688 42.625C228.104 42.625 230.812 38.875 230.812 31.375C230.812 23.4583 228.104 19.5 222.688 19.5C217.396 19.5 214.75 22.9792 214.75 29.9375V32.1875ZM268.325 48.25C263.304 48.25 259.669 47.2083 257.419 45.125C255.19 43.0417 254.075 39.7083 254.075 35.125V20.3125H245.763V14.5H254.075V4.5H260.7V14.5H275.763V20.3125H260.7V34.8125C260.7 37.4375 261.335 39.3438 262.606 40.5312C263.898 41.7188 266.013 42.3125 268.95 42.3125C269.992 42.3125 271.096 42.2604 272.263 42.1562C273.429 42.0312 274.763 41.875 276.263 41.6875L277.013 47.5C275.554 47.75 274.127 47.9375 272.731 48.0625C271.356 48.1875 269.888 48.25 268.325 48.25ZM289.275 47.625V41.8125H301.9V20.3125H291.15V14.5H308.525V41.8125H318.712V47.625H289.275ZM304.994 9.25C303.723 9.25 302.629 8.80208 301.712 7.90625C300.817 6.98958 300.369 5.89583 300.369 4.625C300.369 3.33333 300.817 2.23958 301.712 1.34375C302.629 0.447917 303.723 0 304.994 0C306.285 0 307.379 0.447917 308.275 1.34375C309.171 2.23958 309.619 3.33333 309.619 4.625C309.619 5.89583 309.171 6.98958 308.275 7.90625C307.379 8.80208 306.285 9.25 304.994 9.25ZM352.35 47.625V22.3125C352.35 20.0208 351.496 18.875 349.788 18.875C347.621 18.875 346.538 20.375 346.538 23.375V47.625H340.913V21.6875C340.913 19.8125 340.038 18.875 338.288 18.875C336.163 18.875 335.1 20.375 335.1 23.375V47.625H328.475V14.5H334.35L334.788 18.625H335.288C335.538 15.4583 337.433 13.875 340.975 13.875C342.371 13.875 343.527 14.2708 344.444 15.0625C345.381 15.8542 346.006 17.0417 346.319 18.625H346.85C346.954 17.3333 347.465 16.2188 348.381 15.2812C349.319 14.3438 350.663 13.875 352.413 13.875C354.704 13.875 356.371 14.4896 357.413 15.7188C358.454 16.9479 358.975 18.9375 358.975 21.6875V47.625H352.35ZM370.675 47.625V41.8125H383.3V20.3125H372.55V14.5H389.925V41.8125H400.112V47.625H370.675ZM386.394 9.25C385.123 9.25 384.029 8.80208 383.112 7.90625C382.217 6.98958 381.769 5.89583 381.769 4.625C381.769 3.33333 382.217 2.23958 383.112 1.34375C384.029 0.447917 385.123 0 386.394 0C387.685 0 388.779 0.447917 389.675 1.34375C390.571 2.23958 391.019 3.33333 391.019 4.625C391.019 5.89583 390.571 6.98958 389.675 7.90625C388.779 8.80208 387.685 9.25 386.394 9.25ZM411.5 47.625V41.75L430.312 20.375H411.5V14.5H438.125V20.375L419.406 41.75H438.75V47.625H411.5ZM468.7 48.25C463.054 48.25 458.69 46.7708 455.606 43.8125C452.544 40.8333 451.013 36.5625 451.013 31C451.013 25.5833 452.315 21.375 454.919 18.375C457.523 15.375 461.2 13.875 465.95 13.875C470.429 13.875 473.888 15.2292 476.325 17.9375C478.783 20.6458 480.013 24.5833 480.013 29.75C480.013 31.2708 479.95 32.6875 479.825 34H457.45C458.033 36.7708 459.346 38.875 461.388 40.3125C463.429 41.7292 466.117 42.4375 469.45 42.4375C470.825 42.4375 472.179 42.3646 473.513 42.2188C474.846 42.0521 476.2 41.8333 477.575 41.5625L478.388 47.375C476.429 47.75 474.638 47.9896 473.013 48.0938C471.388 48.1979 469.95 48.25 468.7 48.25ZM457.2 28.9375H474.013C474.013 25.9583 473.304 23.6771 471.888 22.0938C470.471 20.4896 468.513 19.6875 466.013 19.6875C463.45 19.6875 461.408 20.4896 459.888 22.0938C458.367 23.6979 457.471 25.9792 457.2 28.9375ZM503.994 48.25C499.66 48.25 496.369 46.8229 494.119 43.9688C491.89 41.1146 490.775 36.9167 490.775 31.375C490.775 25.625 491.89 21.2708 494.119 18.3125C496.369 15.3542 499.66 13.875 503.994 13.875C506.473 13.875 508.483 14.4583 510.025 15.625C511.587 16.7917 512.504 18.4167 512.775 20.5H513.4V0.75H520.025V47.625L514.087 47.9375L513.431 41.625H512.775C512.567 43.7083 511.681 45.3333 510.119 46.5C508.577 47.6667 506.535 48.25 503.994 48.25ZM513.4 32.1875V29.9375C513.4 22.9792 510.754 19.5 505.462 19.5C500.046 19.5 497.337 23.4583 497.337 31.375C497.337 38.875 500.046 42.625 505.462 42.625C510.754 42.625 513.4 39.1458 513.4 32.1875Z" fill="url(#paint0_linear_22_2)"/>
<defs>
<linearGradient id="paint0_linear_22_2" x1="262.325" y1="140.625" x2="262.325" y2="-89.375" gradientUnits="userSpaceOnUse">
<stop stop-color="#4E54C8"/>
<stop offset="1" stop-color="#8F94FB"/>
</linearGradient>
</defs>
</svg>
